<svg id="Layer_1" data-name="Layer 1" xmlns="http://www.w3.org/2000/svg" viewBox="0 0 89.35 68.58"><defs><style>.cls-1{fill:#ff800b;}.cls-2{fill:#fff;}.cls-3{fill:#aa91c9;}</style></defs><title>Elevate HR footer</title><path class="cls-1" d="M180.29,64.67H160.47a1.34,1.34,0,0,1-1.34-1.34V52.78h22.5V63.33A1.34,1.34,0,0,1,180.29,64.67Z" transform="translate(-101.72 -4.71)"/><path class="cls-2" d="M102.42,63.75V55.1h5.35V56h-4.31v3h3.94v.84h-3.94V62.9h4.31v.85Z" transform="translate(-101.72 -4.71)"/><path class="cls-2" d="M111.1,63.75v-8.9h1v8.9Z" transform="translate(-101.72 -4.71)"/><path class="cls-2" d="M118.62,63.9a3,3,0,0,1-1.55-.4A2.82,2.82,0,0,1,116,62.38a3.49,3.49,0,0,1-.39-1.69A3.6,3.6,0,0,1,116,59a2.75,2.75,0,0,1,1.07-1.12,3.08,3.08,0,0,1,1.59-.41,2.88,2.88,0,0,1,1.54.41,2.7,2.7,0,0,1,1,1,3,3,0,0,1,.35,1.41c0,.09,0,.18,0,.27s0,.2,0,.31h-4.88a2.52,2.52,0,0,0,.33,1.17,2,2,0,0,0,.73.7,2,2,0,0,0,.93.23,1.93,1.93,0,0,0,1.08-.29,1.69,1.69,0,0,0,.63-.81h1a2.67,2.67,0,0,1-2.73,2Zm0-5.55a2.06,2.06,0,0,0-1.31.45,1.77,1.77,0,0,0-.66,1.32h3.85a1.72,1.72,0,0,0-.57-1.3A1.91,1.91,0,0,0,118.62,58.35Z" transform="translate(-101.72 -4.71)"/><path class="cls-2" d="M126.45,63.75l-2.32-6.13h1.09l1.84,5.13,1.85-5.13H130l-2.32,6.13Z" transform="translate(-101.72 -4.71)"/><path class="cls-2" d="M134.92,63.9a2.81,2.81,0,0,1-1.27-.26,1.77,1.77,0,0,1-.76-.69,1.91,1.91,0,0,1-.24-.94,1.68,1.68,0,0,1,.71-1.45,3.4,3.4,0,0,1,2-.5H137V60a1.62,1.62,0,0,0-.42-1.21,1.51,1.51,0,0,0-1.12-.42,1.83,1.83,0,0,0-1.05.3,1.39,1.39,0,0,0-.55.89h-1.06a2,2,0,0,1,.45-1.13,2.53,2.53,0,0,1,1-.69,3.05,3.05,0,0,1,1.24-.25A2.33,2.33,0,0,1,138,60v3.77h-.93l-.06-1.1a2.39,2.39,0,0,1-.76.89A2.24,2.24,0,0,1,134.92,63.9Zm.16-.88a1.65,1.65,0,0,0,1-.31,1.89,1.89,0,0,0,.65-.8,2.46,2.46,0,0,0,.22-1H135.4a2,2,0,0,0-1.29.32,1,1,0,0,0-.38.78.93.93,0,0,0,.36.77A1.46,1.46,0,0,0,135.08,63Z" transform="translate(-101.72 -4.71)"/><path class="cls-2" d="M143.85,63.75a1.93,1.93,0,0,1-1.32-.41,1.85,1.85,0,0,1-.48-1.47V58.5H141v-.88h1.07l.13-1.47h.9v1.47h1.81v.88h-1.81v3.37a1,1,0,0,0,.24.79,1.32,1.32,0,0,0,.83.2h.64v.89Z" transform="translate(-101.72 -4.71)"/><path class="cls-2" d="M150.69,63.9a3,3,0,0,1-1.56-.4,2.86,2.86,0,0,1-1.06-1.12,3.9,3.9,0,0,1,0-3.38,2.69,2.69,0,0,1,1.07-1.12,3.06,3.06,0,0,1,1.59-.41,2.82,2.82,0,0,1,1.53.41,2.65,2.65,0,0,1,1,1,3,3,0,0,1,.35,1.41c0,.09,0,.18,0,.27a3,3,0,0,0,0,.31H148.7a2.52,2.52,0,0,0,.33,1.17,2,2,0,0,0,.73.7,2,2,0,0,0,.93.23,1.93,1.93,0,0,0,1.08-.29,1.82,1.82,0,0,0,.63-.81h1a2.67,2.67,0,0,1-2.73,2Zm0-5.55a2.06,2.06,0,0,0-1.31.45,1.81,1.81,0,0,0-.67,1.32h3.86a1.76,1.76,0,0,0-.57-1.3A1.91,1.91,0,0,0,150.69,58.35Z" transform="translate(-101.72 -4.71)"/><path class="cls-2" d="M162.55,63.09V54.44h1v3.82h4.48V54.44h1v8.65h-1v-4h-4.48v4Z" transform="translate(-101.72 -4.71)"/><path class="cls-2" d="M172.17,63.09V54.44H175a3.62,3.62,0,0,1,1.66.34,2.26,2.26,0,0,1,.95.91,2.79,2.79,0,0,1,.31,1.29,2.62,2.62,0,0,1-.44,1.47,2.38,2.38,0,0,1-1.37.92L178,63.09h-1.22L175,59.52h-1.78v3.57Zm1-4.38h1.68a1.92,1.92,0,0,0,1.45-.48A1.73,1.73,0,0,0,176.8,57a1.65,1.65,0,0,0-.45-1.22,2,2,0,0,0-1.48-.45h-1.66Z" transform="translate(-101.72 -4.71)"/><path class="cls-1" d="M103.3,71.63V66.86h-1.58v-.52h3.8v.52h-1.58v4.77Z" transform="translate(-101.72 -4.71)"/><path class="cls-1" d="M106.5,71.63V66.19h.63v2.33a1.4,1.4,0,0,1,.54-.54,1.53,1.53,0,0,1,.76-.19,1.38,1.38,0,0,1,1,.4,1.75,1.75,0,0,1,.39,1.25v2.19h-.62V69.5c0-.78-.32-1.17-.95-1.17a1.09,1.09,0,0,0-.82.35,1.42,1.42,0,0,0-.34,1v1.95Z" transform="translate(-101.72 -4.71)"/><path class="cls-1" d="M112.8,71.72a1.77,1.77,0,0,1-1-.25,1.7,1.7,0,0,1-.65-.68,2.13,2.13,0,0,1-.24-1,2.26,2.26,0,0,1,.23-1,1.82,1.82,0,0,1,.66-.69,1.91,1.91,0,0,1,1-.24,1.8,1.8,0,0,1,.94.24,1.73,1.73,0,0,1,.61.65,1.82,1.82,0,0,1,.21.86,1,1,0,0,1,0,.17v.19h-3a1.41,1.41,0,0,0,.2.71,1.13,1.13,0,0,0,.44.43,1.26,1.26,0,0,0,.57.14,1.16,1.16,0,0,0,.66-.18,1.06,1.06,0,0,0,.39-.49h.62a1.64,1.64,0,0,1-.58.86A1.66,1.66,0,0,1,112.8,71.72Zm0-3.4a1.28,1.28,0,0,0-.8.28,1.1,1.1,0,0,0-.41.81H114a1.05,1.05,0,0,0-.35-.8A1.16,1.16,0,0,0,112.8,68.32Z" transform="translate(-101.72 -4.71)"/><path class="cls-1" d="M118.24,71.63V66.34H120a2.15,2.15,0,0,1,1,.2,1.4,1.4,0,0,1,.6.55,1.71,1.71,0,0,1,.19.79,1.55,1.55,0,0,1-.19.78,1.37,1.37,0,0,1-.59.55,2.22,2.22,0,0,1-1,.21h-1.1v2.21Zm.64-2.75H120a1.29,1.29,0,0,0,.9-.26,1.16,1.16,0,0,0,0-1.49,1.29,1.29,0,0,0-.9-.26h-1.09Z" transform="translate(-101.72 -4.71)"/><path class="cls-1" d="M124.37,71.72a1.81,1.81,0,0,1-1-.25,1.77,1.77,0,0,1-.65-.68,2.35,2.35,0,0,1,0-2.07,1.73,1.73,0,0,1,.65-.69,1.91,1.91,0,0,1,1-.24,1.78,1.78,0,0,1,.94.24,1.65,1.65,0,0,1,.61.65,1.82,1.82,0,0,1,.21.86v.17c0,.05,0,.12,0,.19h-3a1.41,1.41,0,0,0,.2.71,1.23,1.23,0,0,0,.45.43,1.2,1.2,0,0,0,.57.14A1.11,1.11,0,0,0,125,71a1,1,0,0,0,.39-.49H126a1.67,1.67,0,0,1-1.67,1.21Zm0-3.4a1.3,1.3,0,0,0-.81.28,1.1,1.1,0,0,0-.4.81h2.35a1.08,1.08,0,0,0-.34-.8A1.19,1.19,0,0,0,124.37,68.32Z" transform="translate(-101.72 -4.71)"/><path class="cls-1" d="M129,71.72a1.89,1.89,0,0,1-.95-.24,1.78,1.78,0,0,1-.67-.69,2,2,0,0,1-.25-1,2.16,2.16,0,0,1,.25-1A1.78,1.78,0,0,1,128,68a1.89,1.89,0,0,1,.95-.24,1.93,1.93,0,0,1,1,.24,1.82,1.82,0,0,1,.67.68,2.16,2.16,0,0,1,.24,1,2,2,0,0,1-.25,1,1.78,1.78,0,0,1-.67.69A2,2,0,0,1,129,71.72Zm0-.55a1.12,1.12,0,0,0,.6-.16,1.16,1.16,0,0,0,.46-.47A1.9,1.9,0,0,0,130,69a1.16,1.16,0,0,0-.45-.48,1.12,1.12,0,0,0-.6-.16,1.17,1.17,0,0,0-.6.16,1.16,1.16,0,0,0-.45.48,1.8,1.8,0,0,0,0,1.57,1.08,1.08,0,0,0,.45.47A1.11,1.11,0,0,0,129,71.17Z" transform="translate(-101.72 -4.71)"/><path class="cls-1" d="M132,73.29V67.88h.58l.06.62a1.71,1.71,0,0,1,.51-.49,1.53,1.53,0,0,1,.86-.22,1.86,1.86,0,0,1,1,.25,1.83,1.83,0,0,1,.64.71,2.06,2.06,0,0,1,.23,1,2.09,2.09,0,0,1-.23,1,1.66,1.66,0,0,1-.65.69,1.92,1.92,0,0,1-1.8.07,1.26,1.26,0,0,1-.54-.53v2.29ZM134,71.17a1.2,1.2,0,0,0,1.11-.68,1.7,1.7,0,0,0,0-1.48,1.25,1.25,0,0,0-.45-.49,1.32,1.32,0,0,0-1.33,0,1.25,1.25,0,0,0-.45.49,1.7,1.7,0,0,0,0,1.48,1.2,1.2,0,0,0,1.12.68Z" transform="translate(-101.72 -4.71)"/><path class="cls-1" d="M137,71.63V66.19h.64v5.44Z" transform="translate(-101.72 -4.71)"/><path class="cls-1" d="M140.68,71.72a1.77,1.77,0,0,1-1-.25,1.7,1.7,0,0,1-.65-.68,2.13,2.13,0,0,1-.24-1,2.26,2.26,0,0,1,.23-1,1.82,1.82,0,0,1,.66-.69,1.91,1.91,0,0,1,1-.24,1.8,1.8,0,0,1,.94.24,1.73,1.73,0,0,1,.61.65,1.82,1.82,0,0,1,.21.86v.17a1.09,1.09,0,0,0,0,.19h-3a1.41,1.41,0,0,0,.2.71,1.13,1.13,0,0,0,.44.43,1.26,1.26,0,0,0,.57.14,1.16,1.16,0,0,0,.66-.18,1,1,0,0,0,.39-.49h.62a1.64,1.64,0,0,1-.58.86A1.66,1.66,0,0,1,140.68,71.72Zm0-3.4a1.28,1.28,0,0,0-.8.28,1.1,1.1,0,0,0-.41.81h2.36a1.05,1.05,0,0,0-.35-.8A1.16,1.16,0,0,0,140.68,68.32Z" transform="translate(-101.72 -4.71)"/><path class="cls-1" d="M148.44,71.72a2.55,2.55,0,0,1-1.34-.35,2.38,2.38,0,0,1-.87-1,3.43,3.43,0,0,1,0-2.85,2.48,2.48,0,0,1,.87-1,2.54,2.54,0,0,1,1.34-.34,2.36,2.36,0,0,1,1.48.43,1.92,1.92,0,0,1,.73,1.21H150a1.44,1.44,0,0,0-.5-.79,1.56,1.56,0,0,0-1-.29,1.83,1.83,0,0,0-1,.26,1.68,1.68,0,0,0-.65.74,2.81,2.81,0,0,0-.23,1.17,2.77,2.77,0,0,0,.23,1.17,1.76,1.76,0,0,0,.65.75,1.92,1.92,0,0,0,1,.26,1.62,1.62,0,0,0,1-.29,1.38,1.38,0,0,0,.5-.78h.7a1.93,1.93,0,0,1-.73,1.2A2.43,2.43,0,0,1,148.44,71.72Z" transform="translate(-101.72 -4.71)"/><path class="cls-1" d="M153.49,71.72a1.89,1.89,0,0,1-1-.24,1.78,1.78,0,0,1-.67-.69,2.13,2.13,0,0,1-.24-1,2.16,2.16,0,0,1,.24-1,1.85,1.85,0,0,1,.68-.68,1.93,1.93,0,0,1,1-.24,1.89,1.89,0,0,1,1,.24,1.82,1.82,0,0,1,.67.68,2.16,2.16,0,0,1,.24,1,2,2,0,0,1-.25,1,1.78,1.78,0,0,1-.67.69A2,2,0,0,1,153.49,71.72Zm0-.55a1.18,1.18,0,0,0,.61-.16,1.2,1.2,0,0,0,.45-.47,1.9,1.9,0,0,0,0-1.57,1.16,1.16,0,0,0-.45-.48,1.11,1.11,0,0,0-.59-.16,1.18,1.18,0,0,0-.61.16,1.23,1.23,0,0,0-.45.48,1.9,1.9,0,0,0,0,1.57,1.08,1.08,0,0,0,.45.47A1.11,1.11,0,0,0,153.49,71.17Z" transform="translate(-101.72 -4.71)"/><path class="cls-1" d="M156.53,71.63V67.88h.58l0,.54a1.3,1.3,0,0,1,.49-.47,1.39,1.39,0,0,1,.68-.16,1.53,1.53,0,0,1,.76.18,1.17,1.17,0,0,1,.5.55,1.45,1.45,0,0,1,1.28-.73,1.46,1.46,0,0,1,1.08.4,1.75,1.75,0,0,1,.4,1.25v2.19h-.63V69.5a1.41,1.41,0,0,0-.23-.87.81.81,0,0,0-.68-.3,1,1,0,0,0-.75.35,1.51,1.51,0,0,0-.3,1v1.95h-.63V69.5a1.35,1.35,0,0,0-.24-.87.79.79,0,0,0-.67-.3.94.94,0,0,0-.74.35,1.51,1.51,0,0,0-.3,1v1.95Z" transform="translate(-101.72 -4.71)"/><path class="cls-1" d="M163.62,73.29V67.88h.57l.06.62a1.76,1.76,0,0,1,.52-.49,1.53,1.53,0,0,1,.86-.22,1.8,1.8,0,0,1,1,.25,1.78,1.78,0,0,1,.65.71,2.18,2.18,0,0,1,.23,1,2.21,2.21,0,0,1-.23,1,1.66,1.66,0,0,1-.65.69,1.86,1.86,0,0,1-1,.26,1.8,1.8,0,0,1-.82-.19,1.34,1.34,0,0,1-.55-.53v2.29Zm1.93-2.12a1.2,1.2,0,0,0,1.12-.68,1.7,1.7,0,0,0,0-1.48,1.25,1.25,0,0,0-.45-.49,1.32,1.32,0,0,0-1.33,0,1.25,1.25,0,0,0-.45.49,1.7,1.7,0,0,0,0,1.48,1.2,1.2,0,0,0,1.11.68Z" transform="translate(-101.72 -4.71)"/><path class="cls-1" d="M169.84,71.72a1.72,1.72,0,0,1-.77-.16,1.21,1.21,0,0,1-.47-.42,1.17,1.17,0,0,1-.15-.58,1,1,0,0,1,.44-.88,2,2,0,0,1,1.2-.31h1v-.05a1,1,0,0,0-.26-.74.94.94,0,0,0-.69-.26,1.09,1.09,0,0,0-.63.19.78.78,0,0,0-.34.54h-.65a1.19,1.19,0,0,1,.28-.69,1.42,1.42,0,0,1,.59-.42,1.93,1.93,0,0,1,.75-.15,1.41,1.41,0,0,1,1.58,1.53v2.31h-.56l0-.68a1.36,1.36,0,0,1-.47.54A1.33,1.33,0,0,1,169.84,71.72Zm.1-.54a1,1,0,0,0,.63-.19,1.18,1.18,0,0,0,.39-.49,1.52,1.52,0,0,0,.14-.63h-1a1.24,1.24,0,0,0-.79.19.62.62,0,0,0-.23.48.57.57,0,0,0,.21.47A.94.94,0,0,0,169.94,71.18Z" transform="translate(-101.72 -4.71)"/><path class="cls-1" d="M173,71.63V67.88h.58l0,.67a1.4,1.4,0,0,1,.52-.56,1.56,1.56,0,0,1,.78-.2,1.42,1.42,0,0,1,1.06.4,1.75,1.75,0,0,1,.39,1.25v2.19h-.63V69.5c0-.78-.32-1.17-1-1.17a1,1,0,0,0-.8.35,1.42,1.42,0,0,0-.32,1v1.95Z" transform="translate(-101.72 -4.71)"/><path class="cls-1" d="M177.87,73.29l.93-2h-.22l-1.49-3.38h.68L179,70.8l1.32-2.92H181l-2.46,5.41Z" transform="translate(-101.72 -4.71)"/><path class="cls-2" d="M152.05,25a23.4,23.4,0,0,1,5.31-15.16,19.64,19.64,0,0,1,2-2A20.17,20.17,0,0,0,149.57,25c0,6.35,6.89,15.57,12.48,22C157,39.82,152.05,31.24,152.05,25ZM170,4.72c-2.27.2-4.43,2.23-6.12,5.75A34.63,34.63,0,0,0,161,25c0,7.07,3.9,17.58,6.6,24h.32c-1.36-7.3-2.76-16.33-2.76-22.8a73.3,73.3,0,0,1,1.36-14.9C167.37,7.25,168.54,5.05,170,4.72ZM159.74,25a35.82,35.82,0,0,1,3-15,14.87,14.87,0,0,1,3.15-4.53C158.63,7.74,153.28,15.63,153.28,25c0,7.05,7,17.61,11.75,24h1.2C163.1,41.48,159.74,31.82,159.74,25ZM173,11.55c-1-4.45-2.11-5.63-2.63-5.63s-1.65,1.18-2.63,5.63a72.17,72.17,0,0,0-1.32,14.63c0,6.65,1.56,16.3,2.78,22.8h2.34c1.22-6.5,2.78-16.15,2.78-22.8A72.17,72.17,0,0,0,173,11.55Zm1.82-6.14a14.88,14.88,0,0,1,3.16,4.53,35.82,35.82,0,0,1,3,15c0,6.85-3.37,16.51-6.49,24h1.2c4.77-6.4,11.74-17,11.74-24C187.36,15.63,182,7.74,174.77,5.41Zm2,5.06C175.13,7,173,4.92,170.69,4.72c1.42.33,2.58,2.53,3.47,6.56a73.37,73.37,0,0,1,1.35,14.9c0,6.47-1.39,15.5-2.76,22.8h.33c2.69-6.43,6.59-16.94,6.59-24A34.48,34.48,0,0,0,176.81,10.47ZM191.07,25A20.16,20.16,0,0,0,181.33,7.8a20.67,20.67,0,0,1,1.95,2A23.41,23.41,0,0,1,188.6,25c0,6.27-4.93,14.85-10,22C184.18,40.54,191.07,31.32,191.07,25ZM174.77,5.41a14.88,14.88,0,0,1,3.16,4.53,35.82,35.82,0,0,1,3,15c0,6.85-3.37,16.51-6.49,24h1.2c4.77-6.4,11.74-17,11.74-24C187.36,15.63,182,7.74,174.77,5.41Zm2,5.06C175.13,7,173,4.92,170.69,4.72c1.42.33,2.58,2.53,3.47,6.56a73.37,73.37,0,0,1,1.35,14.9c0,6.47-1.39,15.5-2.76,22.8h.33c2.69-6.43,6.59-16.94,6.59-24A34.48,34.48,0,0,0,176.81,10.47ZM170,4.71h0Z" transform="translate(-101.72 -4.71)"/><path class="cls-3" d="M170,4.72c-2.27.2-4.43,2.23-6.12,5.75A34.63,34.63,0,0,0,161,25c0,7.07,3.9,17.58,6.6,24h.32c-1.36-7.3-2.76-16.33-2.76-22.8a73.3,73.3,0,0,1,1.36-14.9C167.37,7.25,168.54,5.05,170,4.72ZM159.74,25a35.82,35.82,0,0,1,3-15,14.87,14.87,0,0,1,3.15-4.53C158.63,7.74,153.28,15.63,153.28,25c0,7.05,7,17.61,11.75,24h1.2C163.1,41.48,159.74,31.82,159.74,25ZM173,11.55c-1-4.45-2.11-5.63-2.63-5.63s-1.65,1.18-2.63,5.63a72.17,72.17,0,0,0-1.32,14.63c0,6.65,1.56,16.3,2.78,22.8h2.34c1.22-6.5,2.78-16.15,2.78-22.8A72.17,72.17,0,0,0,173,11.55Zm1.82-6.14a14.88,14.88,0,0,1,3.16,4.53,35.82,35.82,0,0,1,3,15c0,6.85-3.37,16.51-6.49,24h1.2c4.77-6.4,11.74-17,11.74-24C187.36,15.63,182,7.74,174.77,5.41Zm2,5.06C175.13,7,173,4.92,170.69,4.72c1.42.33,2.58,2.53,3.47,6.56a73.37,73.37,0,0,1,1.35,14.9c0,6.47-1.39,15.5-2.76,22.8h.33c2.69-6.43,6.59-16.94,6.59-24A34.48,34.48,0,0,0,176.81,10.47ZM170,4.71h0Z" transform="translate(-101.72 -4.71)"/><path class="cls-2" d="M170.21,4.71h0Z" transform="translate(-101.72 -4.71)"/><path class="cls-2" d="M167.57,49C164.87,42.55,161,32,161,25a34.63,34.63,0,0,1,2.86-14.5C165.52,7,167.68,4.92,170,4.72c-1.41.33-2.58,2.53-3.46,6.56a73.3,73.3,0,0,0-1.36,14.9c0,6.47,1.4,15.5,2.76,22.8Z" transform="translate(-101.72 -4.71)"/><path class="cls-2" d="M174.27,26.18c0,6.65-1.56,16.3-2.78,22.8h-2.34c-1.22-6.5-2.78-16.15-2.78-22.8a72.17,72.17,0,0,1,1.32-14.63c1-4.45,2.11-5.63,2.63-5.63S172,7.1,173,11.55A72.17,72.17,0,0,1,174.27,26.18Z" transform="translate(-101.72 -4.71)"/><path class="cls-2" d="M179.67,25c0,7.07-3.9,17.58-6.59,24h-.33c1.37-7.3,2.76-16.33,2.76-22.8a73.37,73.37,0,0,0-1.35-14.9c-.89-4-2-6.23-3.47-6.56,2.28.2,4.44,2.23,6.12,5.75A34.48,34.48,0,0,1,179.67,25Z" transform="translate(-101.72 -4.71)"/><path class="cls-3" d="M174.27,26.18c0,6.65-1.56,16.3-2.78,22.8h-2.34c-1.22-6.5-2.78-16.15-2.78-22.8a72.17,72.17,0,0,1,1.32-14.63c1-4.45,2.11-5.63,2.63-5.63S172,7.1,173,11.55A72.17,72.17,0,0,1,174.27,26.18Z" transform="translate(-101.72 -4.71)"/><path class="cls-2" d="M170,4.71h0Zm.59,0Z" transform="translate(-101.72 -4.71)"/></svg>