<svg id="Layer_1" data-name="Layer 1" xmlns="http://www.w3.org/2000/svg" viewBox="0 0 62.66 48.09"><defs><style>.cls-1{fill:#ff800b;}.cls-2{fill:#422f59;}.cls-3{fill:#fff;}.cls-4{fill:#aa91c9;}</style></defs><title>Elevate Hr</title><path class="cls-1" d="M140.55,45h-13.9a.94.94,0,0,1-.94-.94v-7.4h15.78v7.4A.94.94,0,0,1,140.55,45Z" transform="translate(-85.46 -2.95)"/><path class="cls-2" d="M85.94,44.36V38.29H89.7v.6h-3V41h2.77v.59H86.67v2.17h3v.6Z" transform="translate(-85.46 -2.95)"/><path class="cls-2" d="M92,44.36V38.12h.73v6.24Z" transform="translate(-85.46 -2.95)"/><path class="cls-2" d="M97.31,44.46a2.06,2.06,0,0,1-1.09-.28,2,2,0,0,1-.75-.79,2.45,2.45,0,0,1-.28-1.18A2.52,2.52,0,0,1,95.46,41a1.94,1.94,0,0,1,.75-.78A2.15,2.15,0,0,1,97.33,40a2,2,0,0,1,1.07.29,1.78,1.78,0,0,1,.7.74,2.07,2.07,0,0,1,.24,1v.4H95.91a1.8,1.8,0,0,0,.23.82,1.37,1.37,0,0,0,1.17.66,1.28,1.28,0,0,0,.75-.21,1.19,1.19,0,0,0,.44-.57h.72a1.92,1.92,0,0,1-.66,1A2,2,0,0,1,97.31,44.46Zm0-3.89a1.43,1.43,0,0,0-.92.32,1.26,1.26,0,0,0-.47.92h2.71a1.23,1.23,0,0,0-.4-.91A1.35,1.35,0,0,0,97.31,40.57Z" transform="translate(-85.46 -2.95)"/><path class="cls-2" d="M102.8,44.36l-1.63-4.3h.76l1.29,3.59,1.3-3.59h.75l-1.63,4.3Z" transform="translate(-85.46 -2.95)"/><path class="cls-2" d="M108.74,44.46a2,2,0,0,1-.9-.18,1.18,1.18,0,0,1-.52-.49,1.26,1.26,0,0,1-.18-.66,1.17,1.17,0,0,1,.51-1,2.29,2.29,0,0,1,1.36-.35h1.17v-.06a1.13,1.13,0,0,0-.3-.85,1.1,1.1,0,0,0-.79-.29,1.28,1.28,0,0,0-.73.21,1,1,0,0,0-.39.62h-.74a1.36,1.36,0,0,1,.32-.79,1.8,1.8,0,0,1,.68-.49,2.27,2.27,0,0,1,.86-.17,1.63,1.63,0,0,1,1.81,1.76v2.65h-.65l0-.77a1.71,1.71,0,0,1-.53.61A1.52,1.52,0,0,1,108.74,44.46Zm.11-.61a1.18,1.18,0,0,0,.71-.22,1.39,1.39,0,0,0,.46-.56,1.88,1.88,0,0,0,.16-.73h-1.1a1.43,1.43,0,0,0-.91.22.68.68,0,0,0-.26.55.66.66,0,0,0,.24.54A1.06,1.06,0,0,0,108.85,43.85Z" transform="translate(-85.46 -2.95)"/><path class="cls-2" d="M115,44.36a1.42,1.42,0,0,1-.93-.29,1.31,1.31,0,0,1-.34-1V40.67H113v-.61h.74l.1-1h.63v1h1.27v.61h-1.27V43a.72.72,0,0,0,.17.55.87.87,0,0,0,.58.14h.45v.63Z" transform="translate(-85.46 -2.95)"/><path class="cls-2" d="M119.8,44.46A2,2,0,0,1,118,43.39a2.45,2.45,0,0,1-.27-1.18A2.52,2.52,0,0,1,118,41a1.94,1.94,0,0,1,.75-.78,2.14,2.14,0,0,1,1.11-.29,2,2,0,0,1,1.08.29,1.78,1.78,0,0,1,.7.74,2.07,2.07,0,0,1,.24,1v.19a1.34,1.34,0,0,0,0,.21H118.4a1.68,1.68,0,0,0,.23.82,1.4,1.4,0,0,0,.51.49,1.38,1.38,0,0,0,.66.17,1.28,1.28,0,0,0,.75-.21,1.19,1.19,0,0,0,.44-.57h.72a2,2,0,0,1-.66,1A2,2,0,0,1,119.8,44.46Zm0-3.89a1.48,1.48,0,0,0-.93.32,1.25,1.25,0,0,0-.46.92h2.7a1.2,1.2,0,0,0-.4-.91A1.31,1.31,0,0,0,119.8,40.57Z" transform="translate(-85.46 -2.95)"/><path class="cls-3" d="M128.11,43.9V37.83h.73v2.68H132V37.83h.73V43.9H132V41.11h-3.14V43.9Z" transform="translate(-85.46 -2.95)"/><path class="cls-3" d="M134.86,43.9V37.83h1.95a2.65,2.65,0,0,1,1.17.23,1.48,1.48,0,0,1,.66.65,1.82,1.82,0,0,1,.22.9,1.78,1.78,0,0,1-.31,1,1.67,1.67,0,0,1-1,.65l1.33,2.61h-.86l-1.23-2.51h-1.25V43.9Zm.72-3.08h1.18a1.32,1.32,0,0,0,1-.34,1.18,1.18,0,0,0,.33-.87,1.16,1.16,0,0,0-.32-.85,1.44,1.44,0,0,0-1-.31h-1.17Z" transform="translate(-85.46 -2.95)"/><path class="cls-1" d="M86.57,49.88V46.53H85.46v-.36h2.66v.36H87v3.35Z" transform="translate(-85.46 -2.95)"/><path class="cls-1" d="M88.81,49.88V46.06h.44V47.7a1,1,0,0,1,.38-.38,1.07,1.07,0,0,1,.53-.13,1,1,0,0,1,.73.28,1.23,1.23,0,0,1,.28.87v1.54h-.44V48.39c0-.55-.22-.82-.67-.82a.75.75,0,0,0-.57.24,1,1,0,0,0-.24.71v1.36Z" transform="translate(-85.46 -2.95)"/><path class="cls-1" d="M93.23,49.94a1.24,1.24,0,0,1-.67-.17,1.12,1.12,0,0,1-.46-.48,1.51,1.51,0,0,1-.17-.73,1.53,1.53,0,0,1,.17-.72,1.12,1.12,0,0,1,.46-.48,1.25,1.25,0,0,1,.68-.17,1.2,1.2,0,0,1,.66.17,1.07,1.07,0,0,1,.42.45,1.28,1.28,0,0,1,.15.61v.25h-2.1a1.09,1.09,0,0,0,.14.5.85.85,0,0,0,.72.4.86.86,0,0,0,.46-.13.79.79,0,0,0,.27-.35h.44a1.16,1.16,0,0,1-1.17.85Zm0-2.38a.92.92,0,0,0-.57.2.76.76,0,0,0-.28.56H94a.77.77,0,0,0-.24-.56A.83.83,0,0,0,93.23,47.56Z" transform="translate(-85.46 -2.95)"/><path class="cls-1" d="M97,49.88V46.17h1.22a1.68,1.68,0,0,1,.72.14,1,1,0,0,1,.41.39,1.12,1.12,0,0,1,.14.55,1.27,1.27,0,0,1-.13.55,1,1,0,0,1-.42.39,1.62,1.62,0,0,1-.72.14h-.77v1.55ZM97.49,48h.76a.88.88,0,0,0,.63-.19.69.69,0,0,0,.19-.52.68.68,0,0,0-.19-.52.83.83,0,0,0-.63-.19h-.76Z" transform="translate(-85.46 -2.95)"/><path class="cls-1" d="M101.34,49.94a1.22,1.22,0,0,1-.67-.17,1.12,1.12,0,0,1-.46-.48,1.51,1.51,0,0,1-.17-.73,1.53,1.53,0,0,1,.17-.72,1.12,1.12,0,0,1,.46-.48,1.25,1.25,0,0,1,.68-.17,1.2,1.2,0,0,1,.66.17,1.14,1.14,0,0,1,.42.45,1.28,1.28,0,0,1,.15.61v.25h-2.1a1.09,1.09,0,0,0,.14.5.91.91,0,0,0,.32.3.88.88,0,0,0,.4.1.86.86,0,0,0,.46-.13.79.79,0,0,0,.27-.35h.44a1.16,1.16,0,0,1-1.17.85Zm0-2.38a.9.9,0,0,0-.57.2.76.76,0,0,0-.28.56h1.65a.77.77,0,0,0-.24-.56A.83.83,0,0,0,101.34,47.56Z" transform="translate(-85.46 -2.95)"/><path class="cls-1" d="M104.56,49.94a1.23,1.23,0,0,1-.66-.17,1.15,1.15,0,0,1-.47-.48,1.55,1.55,0,0,1,0-1.45,1.21,1.21,0,0,1,.47-.48,1.29,1.29,0,0,1,.67-.17,1.26,1.26,0,0,1,.67.17,1.15,1.15,0,0,1,.47.48,1.63,1.63,0,0,1,0,1.45,1.23,1.23,0,0,1-.48.48A1.26,1.26,0,0,1,104.56,49.94Zm0-.38a.89.89,0,0,0,.43-.11.92.92,0,0,0,.32-.33,1.19,1.19,0,0,0,.12-.56,1.18,1.18,0,0,0-.12-.55.85.85,0,0,0-.32-.33.86.86,0,0,0-.84,0,.85.85,0,0,0-.32.33,1.18,1.18,0,0,0-.12.55,1.19,1.19,0,0,0,.12.56.85.85,0,0,0,.32.33A.87.87,0,0,0,104.56,49.56Z" transform="translate(-85.46 -2.95)"/><path class="cls-1" d="M106.7,51.05v-3.8h.4l0,.43a1.47,1.47,0,0,1,.36-.34,1.13,1.13,0,0,1,.61-.15,1.25,1.25,0,0,1,.68.18,1.18,1.18,0,0,1,.45.49,1.51,1.51,0,0,1,.16.71,1.49,1.49,0,0,1-.16.71,1.25,1.25,0,0,1-.45.49,1.41,1.41,0,0,1-.69.17,1.17,1.17,0,0,1-.57-.13.93.93,0,0,1-.39-.37v1.61Zm1.35-1.49a.89.89,0,0,0,.47-.13.91.91,0,0,0,.32-.35,1.05,1.05,0,0,0,.11-.52,1,1,0,0,0-.11-.51.91.91,0,0,0-.32-.35.89.89,0,0,0-.47-.13.88.88,0,0,0-.46.13.84.84,0,0,0-.32.35,1,1,0,0,0-.12.51,1.05,1.05,0,0,0,.12.52.84.84,0,0,0,.32.35A.88.88,0,0,0,108.05,49.56Z" transform="translate(-85.46 -2.95)"/><path class="cls-1" d="M110.22,49.88V46.06h.44v3.82Z" transform="translate(-85.46 -2.95)"/><path class="cls-1" d="M112.78,49.94a1.24,1.24,0,0,1-.67-.17,1.18,1.18,0,0,1-.46-.48,1.51,1.51,0,0,1-.17-.73,1.53,1.53,0,0,1,.17-.72,1.12,1.12,0,0,1,.46-.48,1.25,1.25,0,0,1,.68-.17,1.2,1.2,0,0,1,.66.17,1.07,1.07,0,0,1,.42.45,1.28,1.28,0,0,1,.15.61v.25h-2.1a1.22,1.22,0,0,0,.14.5.85.85,0,0,0,.72.4.83.83,0,0,0,.46-.13.79.79,0,0,0,.27-.35H114a1.16,1.16,0,0,1-1.17.85Zm0-2.38a.92.92,0,0,0-.57.2.76.76,0,0,0-.28.56h1.65a.77.77,0,0,0-.24-.56A.83.83,0,0,0,112.78,47.56Z" transform="translate(-85.46 -2.95)"/><path class="cls-1" d="M118.22,49.94a1.78,1.78,0,0,1-.94-.24,1.59,1.59,0,0,1-.61-.67,2.15,2.15,0,0,1-.22-1,2.09,2.09,0,0,1,.22-1,1.61,1.61,0,0,1,.61-.68,1.78,1.78,0,0,1,.94-.24,1.71,1.71,0,0,1,1,.3,1.43,1.43,0,0,1,.51.85h-.49a1,1,0,0,0-.35-.55,1.11,1.11,0,0,0-.71-.21,1.29,1.29,0,0,0-.69.18,1.2,1.2,0,0,0-.46.53,2.16,2.16,0,0,0,0,1.63,1.2,1.2,0,0,0,.46.53,1.29,1.29,0,0,0,.69.18,1.17,1.17,0,0,0,.71-.2,1,1,0,0,0,.35-.55h.49a1.4,1.4,0,0,1-.51.84A1.71,1.71,0,0,1,118.22,49.94Z" transform="translate(-85.46 -2.95)"/><path class="cls-1" d="M121.76,49.94a1.26,1.26,0,0,1-.67-.17,1.21,1.21,0,0,1-.47-.48,1.51,1.51,0,0,1-.17-.73,1.4,1.4,0,0,1,.18-.72,1.15,1.15,0,0,1,.47-.48,1.41,1.41,0,0,1,1.34,0,1.21,1.21,0,0,1,.47.48,1.5,1.5,0,0,1,.17.72,1.41,1.41,0,0,1-.18.73,1.15,1.15,0,0,1-.47.48A1.26,1.26,0,0,1,121.76,49.94Zm0-.38a.88.88,0,0,0,.42-.11.85.85,0,0,0,.32-.33,1.19,1.19,0,0,0,.12-.56,1.18,1.18,0,0,0-.12-.55.76.76,0,0,0-.31-.33.86.86,0,0,0-.84,0A.85.85,0,0,0,121,48a1.18,1.18,0,0,0-.12.55,1.19,1.19,0,0,0,.12.56.83.83,0,0,0,.31.33A.88.88,0,0,0,121.76,49.56Z" transform="translate(-85.46 -2.95)"/><path class="cls-1" d="M123.89,49.88V47.25h.41l0,.38a.9.9,0,0,1,.34-.33,1,1,0,0,1,.47-.11,1.13,1.13,0,0,1,.54.12.89.89,0,0,1,.35.39,1.06,1.06,0,0,1,.38-.38,1,1,0,0,1,.52-.13,1,1,0,0,1,.75.28,1.18,1.18,0,0,1,.28.87v1.54h-.44V48.39a1,1,0,0,0-.16-.61.57.57,0,0,0-.47-.21.68.68,0,0,0-.53.24,1.07,1.07,0,0,0-.21.71v1.36h-.44V48.39a.94.94,0,0,0-.17-.61.57.57,0,0,0-.47-.21.66.66,0,0,0-.52.24,1.07,1.07,0,0,0-.21.71v1.36Z" transform="translate(-85.46 -2.95)"/><path class="cls-1" d="M128.86,51.05v-3.8h.4l.05.43a1.18,1.18,0,0,1,.36-.34,1.11,1.11,0,0,1,.6-.15,1.25,1.25,0,0,1,.68.18,1.21,1.21,0,0,1,.46.49,1.51,1.51,0,0,1,.16.71,1.49,1.49,0,0,1-.16.71,1.27,1.27,0,0,1-.46.49,1.34,1.34,0,0,1-.68.17,1.21,1.21,0,0,1-.58-.13.85.85,0,0,1-.38-.37v1.61Zm1.36-1.49a.88.88,0,0,0,.46-.13.84.84,0,0,0,.32-.35,1.05,1.05,0,0,0,.12-.52,1,1,0,0,0-.12-.51.84.84,0,0,0-.32-.35.88.88,0,0,0-.46-.13.92.92,0,0,0-.47.13.91.91,0,0,0-.32.35,1.16,1.16,0,0,0-.11.51,1.17,1.17,0,0,0,.11.52.91.91,0,0,0,.32.35A.92.92,0,0,0,130.22,49.56Z" transform="translate(-85.46 -2.95)"/><path class="cls-1" d="M133.23,49.94a1.15,1.15,0,0,1-.55-.11.72.72,0,0,1-.32-.3.77.77,0,0,1-.11-.4.71.71,0,0,1,.31-.62,1.45,1.45,0,0,1,.84-.22h.71v0a.7.7,0,0,0-.18-.52.66.66,0,0,0-.49-.18.79.79,0,0,0-.44.13.58.58,0,0,0-.24.38h-.46a.87.87,0,0,1,.2-.48,1.12,1.12,0,0,1,.41-.3,1.39,1.39,0,0,1,.53-.1,1.06,1.06,0,0,1,.83.29,1.08,1.08,0,0,1,.28.78v1.62h-.4l0-.47a1.19,1.19,0,0,1-.33.38A1,1,0,0,1,133.23,49.94Zm.07-.37a.69.69,0,0,0,.43-.14.78.78,0,0,0,.28-.34,1.14,1.14,0,0,0,.1-.45h-.68a.87.87,0,0,0-.55.13.43.43,0,0,0-.16.34.4.4,0,0,0,.15.33A.67.67,0,0,0,133.3,49.57Z" transform="translate(-85.46 -2.95)"/><path class="cls-1" d="M135.45,49.88V47.25h.4l0,.47a1,1,0,0,1,.36-.39,1,1,0,0,1,.54-.14,1,1,0,0,1,.75.28,1.23,1.23,0,0,1,.28.87v1.54h-.45V48.39c0-.55-.23-.82-.68-.82a.74.74,0,0,0-.56.24,1,1,0,0,0-.23.71v1.36Z" transform="translate(-85.46 -2.95)"/><path class="cls-1" d="M138.85,51.05l.65-1.43h-.15l-1-2.37h.48l.87,2,.92-2H141l-1.72,3.8Z" transform="translate(-85.46 -2.95)"/><path class="cls-2" d="M120.75,17.16a16.39,16.39,0,0,1,3.73-10.63,14.08,14.08,0,0,1,1.37-1.41,14.13,14.13,0,0,0-6.84,12c0,4.45,4.83,10.92,8.75,15.44C124.21,27.58,120.75,21.56,120.75,17.16ZM133.3,3c-1.59.13-3.11,1.55-4.29,4a24.21,24.21,0,0,0-2,10.16c0,5,2.73,12.33,4.62,16.84h.23a98,98,0,0,1-1.94-16,51.29,51.29,0,0,1,1-10.44C131.49,4.74,132.31,3.19,133.3,3Zm-7.16,14.19a25.1,25.1,0,0,1,2.09-10.54,10.3,10.3,0,0,1,2.21-3.17c-5.08,1.63-8.83,7.16-8.83,13.71,0,4.95,4.89,12.35,8.24,16.84h.84C128.5,28.74,126.14,22,126.14,17.16Zm9.26-9.41c-.68-3.12-1.47-3.95-1.84-3.95s-1.16.83-1.84,4A50.33,50.33,0,0,0,130.79,18a101.08,101.08,0,0,0,2,16h1.64a99.93,99.93,0,0,0,2-16A50.33,50.33,0,0,0,135.4,7.75Zm1.28-4.31a10.48,10.48,0,0,1,2.21,3.18A25.1,25.1,0,0,1,141,17.16c0,4.8-2.36,11.58-4.55,16.84h.85c3.34-4.49,8.23-11.89,8.23-16.84C145.51,10.61,141.76,5.08,136.68,3.44ZM138.11,7c-1.18-2.48-2.69-3.9-4.29-4,1,.22,1.81,1.77,2.43,4.6A51.29,51.29,0,0,1,137.2,18a98,98,0,0,1-1.94,16h.23c1.9-4.51,4.63-11.88,4.63-16.84A24,24,0,0,0,138.11,7Zm10,10.16a14.14,14.14,0,0,0-6.83-12,14.08,14.08,0,0,1,1.37,1.41,16.44,16.44,0,0,1,3.73,10.63c0,4.4-3.46,10.42-7,15.44C143.28,28.08,148.11,21.61,148.11,17.16ZM136.68,3.44a10.48,10.48,0,0,1,2.21,3.18A25.1,25.1,0,0,1,141,17.16c0,4.8-2.36,11.58-4.55,16.84h.85c3.34-4.49,8.23-11.89,8.23-16.84C145.51,10.61,141.76,5.08,136.68,3.44ZM138.11,7c-1.18-2.48-2.69-3.9-4.29-4,1,.22,1.81,1.77,2.43,4.6A51.29,51.29,0,0,1,137.2,18a98,98,0,0,1-1.94,16h.23c1.9-4.51,4.63-11.88,4.63-16.84A24,24,0,0,0,138.11,7Zm-4.75-4h-.06l.18,0Z" transform="translate(-85.46 -2.95)"/><path class="cls-4" d="M133.3,3c-1.59.13-3.11,1.55-4.29,4a24.21,24.21,0,0,0-2,10.16c0,5,2.73,12.33,4.62,16.84h.23a98,98,0,0,1-1.94-16,51.29,51.29,0,0,1,1-10.44C131.49,4.74,132.31,3.19,133.3,3Zm-7.16,14.19a25.1,25.1,0,0,1,2.09-10.54,10.3,10.3,0,0,1,2.21-3.17c-5.08,1.63-8.83,7.16-8.83,13.71,0,4.95,4.89,12.35,8.24,16.84h.84C128.5,28.74,126.14,22,126.14,17.16Zm9.26-9.41c-.68-3.12-1.47-3.95-1.84-3.95s-1.16.83-1.84,4A50.33,50.33,0,0,0,130.79,18a101.08,101.08,0,0,0,2,16h1.64a99.93,99.93,0,0,0,2-16A50.33,50.33,0,0,0,135.4,7.75Zm1.28-4.31a10.48,10.48,0,0,1,2.21,3.18A25.1,25.1,0,0,1,141,17.16c0,4.8-2.36,11.58-4.55,16.84h.85c3.34-4.49,8.23-11.89,8.23-16.84C145.51,10.61,141.76,5.08,136.68,3.44ZM138.11,7c-1.18-2.48-2.69-3.9-4.29-4,1,.22,1.81,1.77,2.43,4.6A51.29,51.29,0,0,1,137.2,18a98,98,0,0,1-1.94,16h.23c1.9-4.51,4.63-11.88,4.63-16.84A24,24,0,0,0,138.11,7Zm-4.75-4h-.06l.18,0Z" transform="translate(-85.46 -2.95)"/><path class="cls-2" d="M133.48,3l-.18,0h.18Z" transform="translate(-85.46 -2.95)"/><path class="cls-2" d="M131.63,34C129.74,29.49,127,22.12,127,17.16A24.21,24.21,0,0,1,129,7c1.18-2.48,2.7-3.9,4.29-4-1,.22-1.81,1.77-2.43,4.6a51.29,51.29,0,0,0-1,10.44,98,98,0,0,0,1.94,16Z" transform="translate(-85.46 -2.95)"/><path class="cls-2" d="M136.33,18a99.93,99.93,0,0,1-2,16h-1.64a101.08,101.08,0,0,1-2-16,50.33,50.33,0,0,1,.93-10.26c.68-3.12,1.48-3.95,1.84-3.95s1.16.83,1.84,4A50.33,50.33,0,0,1,136.33,18Z" transform="translate(-85.46 -2.95)"/><path class="cls-2" d="M140.12,17.16c0,5-2.73,12.33-4.63,16.84h-.23a98,98,0,0,0,1.94-16,51.29,51.29,0,0,0-.95-10.44c-.62-2.83-1.44-4.38-2.43-4.6,1.6.13,3.11,1.55,4.29,4A24,24,0,0,1,140.12,17.16Z" transform="translate(-85.46 -2.95)"/><path class="cls-4" d="M136.33,18a99.93,99.93,0,0,1-2,16h-1.64a101.08,101.08,0,0,1-2-16,50.33,50.33,0,0,1,.93-10.26c.68-3.12,1.48-3.95,1.84-3.95s1.16.83,1.84,4A50.33,50.33,0,0,1,136.33,18Z" transform="translate(-85.46 -2.95)"/><path class="cls-3" d="M133.36,3h-.06l.18,0Zm.41,0h0Z" transform="translate(-85.46 -2.95)"/></svg>