<svg id="Layer_1" data-name="Layer 1" xmlns="http://www.w3.org/2000/svg" viewBox="0 0 230 176.53"><defs><style>.cls-1{fill:#ff800b;}.cls-2{fill:#422f59;}.cls-3{fill:#fff;}.cls-4{fill:#aa91c9;}</style></defs><title>Elevate HR Header</title><path class="cls-1" d="M204.49,166.7h-51a3.44,3.44,0,0,1-3.45-3.45V136.09h57.93v27.16A3.45,3.45,0,0,1,204.49,166.7Z" transform="translate(-2.24 -12.36)"/><path class="cls-2" d="M4,164.34V142.07H17.81v2.2H6.71V152H16.85v2.16H6.71v7.95h11.1v2.2Z" transform="translate(-2.24 -12.36)"/><path class="cls-2" d="M26.39,164.34v-22.9h2.67v22.9Z" transform="translate(-2.24 -12.36)"/><path class="cls-2" d="M45.75,164.72a7.72,7.72,0,0,1-4-1A7.33,7.33,0,0,1,39,160.81a9,9,0,0,1-1-4.36,9.23,9.23,0,0,1,1-4.34,7.25,7.25,0,0,1,2.75-2.9,8,8,0,0,1,4.09-1,7.44,7.44,0,0,1,4,1,7,7,0,0,1,2.56,2.72,7.62,7.62,0,0,1,.89,3.63c0,.23,0,.47,0,.7s0,.5,0,.8H40.63a6.13,6.13,0,0,0,.84,3,4.9,4.9,0,0,0,1.88,1.8,5,5,0,0,0,2.4.6,4.8,4.8,0,0,0,2.77-.76,4.39,4.39,0,0,0,1.62-2.07h2.64a7.14,7.14,0,0,1-2.44,3.64A7,7,0,0,1,45.75,164.72Zm0-14.28a5.38,5.38,0,0,0-3.39,1.16,4.66,4.66,0,0,0-1.7,3.39h9.92a4.5,4.5,0,0,0-1.46-3.34A4.89,4.89,0,0,0,45.75,150.44Z" transform="translate(-2.24 -12.36)"/><path class="cls-2" d="M65.9,164.34l-6-15.78h2.8l4.74,13.2,4.77-13.2H75l-6,15.78Z" transform="translate(-2.24 -12.36)"/><path class="cls-2" d="M87.7,164.72a7.12,7.12,0,0,1-3.28-.67,4.55,4.55,0,0,1-1.94-1.78,4.83,4.83,0,0,1-.63-2.42,4.28,4.28,0,0,1,1.84-3.72,8.58,8.58,0,0,1,5-1.3H93v-.19a4.24,4.24,0,0,0-1.08-3.14,4,4,0,0,0-2.9-1.06,4.6,4.6,0,0,0-2.68.78,3.4,3.4,0,0,0-1.42,2.27H82.17a5,5,0,0,1,1.16-2.89,6.44,6.44,0,0,1,2.49-1.8,8.3,8.3,0,0,1,3.18-.62,6,6,0,0,1,6.65,6.46v9.7H93.27l-.16-2.83a6.25,6.25,0,0,1-2,2.27A5.71,5.71,0,0,1,87.7,164.72Zm.41-2.26a4.36,4.36,0,0,0,2.63-.79,5.07,5.07,0,0,0,1.67-2.07,6.47,6.47,0,0,0,.57-2.67v0h-4a5.22,5.22,0,0,0-3.32.81,2.51,2.51,0,0,0-1,2,2.44,2.44,0,0,0,.9,2A3.93,3.93,0,0,0,88.11,162.46Z" transform="translate(-2.24 -12.36)"/><path class="cls-2" d="M110.69,164.34a5.11,5.11,0,0,1-3.41-1.05c-.82-.7-1.24-2-1.24-3.79v-8.68h-2.73v-2.26H106l.35-3.78h2.32v3.78h4.65v2.26h-4.65v8.68a2.63,2.63,0,0,0,.61,2,3.28,3.28,0,0,0,2.13.53h1.65v2.29Z" transform="translate(-2.24 -12.36)"/><path class="cls-2" d="M128.3,164.72a7.7,7.7,0,0,1-4-1,7.26,7.26,0,0,1-2.75-2.88,9,9,0,0,1-1-4.36,9.11,9.11,0,0,1,1-4.34,7.19,7.19,0,0,1,2.75-2.9,8,8,0,0,1,4.09-1,7.44,7.44,0,0,1,4,1,7,7,0,0,1,2.56,2.72,7.73,7.73,0,0,1,.89,3.63c0,.23,0,.47,0,.7s0,.5,0,.8H123.17a6.24,6.24,0,0,0,.85,3,5,5,0,0,0,1.87,1.8,5.09,5.09,0,0,0,2.41.6,4.75,4.75,0,0,0,2.76-.76,4.33,4.33,0,0,0,1.62-2.07h2.64a6.93,6.93,0,0,1-7,5.09Zm0-14.28a5.34,5.34,0,0,0-3.39,1.16,4.62,4.62,0,0,0-1.7,3.39h9.92a4.5,4.5,0,0,0-1.46-3.34A4.91,4.91,0,0,0,128.3,150.44Z" transform="translate(-2.24 -12.36)"/><path class="cls-3" d="M158.82,162.65V140.38h2.67v9.83H173v-9.83h2.68v22.27H173V152.4H161.49v10.25Z" transform="translate(-2.24 -12.36)"/><path class="cls-3" d="M183.58,162.65V140.38h7.19a9.27,9.27,0,0,1,4.26.86,5.63,5.63,0,0,1,2.45,2.35,6.94,6.94,0,0,1,.79,3.31,6.62,6.62,0,0,1-1.13,3.79,6.06,6.06,0,0,1-3.51,2.38l4.86,9.58h-3.14l-4.52-9.2h-4.58v9.2Zm2.67-11.3h4.32a5,5,0,0,0,3.76-1.24,4.43,4.43,0,0,0,1.18-3.18,4.21,4.21,0,0,0-1.17-3.13,5.24,5.24,0,0,0-3.8-1.16h-4.29Z" transform="translate(-2.24 -12.36)"/><path class="cls-1" d="M6.31,184.61V172.34H2.24V171H12v1.35H8v12.27Z" transform="translate(-2.24 -12.36)"/><path class="cls-1" d="M14.54,184.61v-14h1.64v6a3.38,3.38,0,0,1,1.38-1.4,3.91,3.91,0,0,1,1.94-.49,3.6,3.6,0,0,1,2.69,1,4.45,4.45,0,0,1,1,3.2v5.64H21.59v-5.47c0-2-.82-3-2.44-3A2.81,2.81,0,0,0,17,177a3.63,3.63,0,0,0-.85,2.58v5Z" transform="translate(-2.24 -12.36)"/><path class="cls-1" d="M30.77,184.84a4.77,4.77,0,0,1-2.46-.63,4.52,4.52,0,0,1-1.68-1.76,5.47,5.47,0,0,1-.61-2.66,5.61,5.61,0,0,1,.6-2.66,4.37,4.37,0,0,1,1.69-1.77,4.84,4.84,0,0,1,2.5-.63,4.52,4.52,0,0,1,2.42.63A4.28,4.28,0,0,1,34.79,177a4.62,4.62,0,0,1,.55,2.22c0,.14,0,.29,0,.43s0,.3,0,.49H27.63a3.69,3.69,0,0,0,.52,1.83,3,3,0,0,0,1.15,1.1,3,3,0,0,0,1.47.37,3,3,0,0,0,1.69-.46,2.72,2.72,0,0,0,1-1.27h1.62a4.23,4.23,0,0,1-4.3,3.11Zm0-8.73a3.32,3.32,0,0,0-2.08.71,2.85,2.85,0,0,0-1,2.07h6.07a2.74,2.74,0,0,0-.89-2A3,3,0,0,0,30.77,176.11Z" transform="translate(-2.24 -12.36)"/><path class="cls-1" d="M44.77,184.61V171h4.48a5.73,5.73,0,0,1,2.62.53,3.47,3.47,0,0,1,1.53,1.42,4.35,4.35,0,0,1,0,4,3.52,3.52,0,0,1-1.52,1.43,5.79,5.79,0,0,1-2.64.53H46.41v5.68Zm1.64-7.06h2.8a3.2,3.2,0,0,0,2.32-.69,3,3,0,0,0,0-3.81,3.2,3.2,0,0,0-2.32-.7h-2.8Z" transform="translate(-2.24 -12.36)"/><path class="cls-1" d="M60.53,184.84a4.73,4.73,0,0,1-2.45-.63,4.52,4.52,0,0,1-1.68-1.76,5.47,5.47,0,0,1-.62-2.66,5.61,5.61,0,0,1,.61-2.66,4.35,4.35,0,0,1,1.68-1.77,4.86,4.86,0,0,1,2.5-.63,4.52,4.52,0,0,1,2.42.63A4.31,4.31,0,0,1,64.56,177a4.73,4.73,0,0,1,.54,2.22c0,.14,0,.29,0,.43s0,.3,0,.49H57.4a3.69,3.69,0,0,0,.52,1.83,2.93,2.93,0,0,0,1.14,1.1,3,3,0,0,0,1.47.37,2.9,2.9,0,0,0,1.69-.46,2.68,2.68,0,0,0,1-1.27h1.61a4.23,4.23,0,0,1-4.3,3.11Zm0-8.73a3.27,3.27,0,0,0-2.07.71,2.85,2.85,0,0,0-1,2.07h6.07a2.75,2.75,0,0,0-.9-2A3,3,0,0,0,60.53,176.11Z" transform="translate(-2.24 -12.36)"/><path class="cls-1" d="M72.38,184.84a4.8,4.8,0,0,1-2.45-.62,4.42,4.42,0,0,1-1.72-1.76,5.43,5.43,0,0,1-.63-2.67,5.34,5.34,0,0,1,.64-2.68A4.6,4.6,0,0,1,70,175.35a4.94,4.94,0,0,1,2.46-.62,4.87,4.87,0,0,1,2.45.62,4.48,4.48,0,0,1,1.72,1.76,5.45,5.45,0,0,1,.64,2.68,5.33,5.33,0,0,1-.65,2.67,4.4,4.4,0,0,1-1.74,1.76A4.84,4.84,0,0,1,72.38,184.84Zm0-1.4a3.12,3.12,0,0,0,1.56-.4,3.16,3.16,0,0,0,1.17-1.23,4.93,4.93,0,0,0,0-4.05A3,3,0,0,0,74,176.54a3,3,0,0,0-1.54-.41,3,3,0,0,0-1.56.41,3,3,0,0,0-1.16,1.22,4.78,4.78,0,0,0,0,4.05A3.11,3.11,0,0,0,70.85,183,3.07,3.07,0,0,0,72.38,183.44Z" transform="translate(-2.24 -12.36)"/><path class="cls-1" d="M80.21,188.89V175h1.48l.15,1.6a4.69,4.69,0,0,1,1.34-1.27,4,4,0,0,1,2.21-.56,4.66,4.66,0,0,1,2.5.66,4.49,4.49,0,0,1,1.67,1.81,6,6,0,0,1,0,5.2,4.51,4.51,0,0,1-1.67,1.79,4.73,4.73,0,0,1-2.52.65,4.54,4.54,0,0,1-2.12-.48A3.49,3.49,0,0,1,81.84,183v5.89Zm5-5.47a3.1,3.1,0,0,0,2.88-1.73,4.43,4.43,0,0,0,0-3.81,3.31,3.31,0,0,0-4.59-1.27,3.2,3.2,0,0,0-1.17,1.27,4.43,4.43,0,0,0,0,3.81A3.3,3.3,0,0,0,83.48,183,3.21,3.21,0,0,0,85.19,183.42Z" transform="translate(-2.24 -12.36)"/><path class="cls-1" d="M93.14,184.61v-14h1.63v14Z" transform="translate(-2.24 -12.36)"/><path class="cls-1" d="M102.53,184.84a4.73,4.73,0,0,1-2.45-.63,4.52,4.52,0,0,1-1.68-1.76,5.47,5.47,0,0,1-.61-2.66,5.61,5.61,0,0,1,.6-2.66,4.35,4.35,0,0,1,1.68-1.77,4.86,4.86,0,0,1,2.5-.63,4.5,4.5,0,0,1,2.42.63,4.31,4.31,0,0,1,1.57,1.66,4.73,4.73,0,0,1,.54,2.22c0,.14,0,.29,0,.43s0,.3,0,.49H99.4a3.69,3.69,0,0,0,.52,1.83,2.93,2.93,0,0,0,1.14,1.1,3,3,0,0,0,1.47.37,3,3,0,0,0,1.7-.46,2.72,2.72,0,0,0,1-1.27h1.61a4.23,4.23,0,0,1-4.3,3.11Zm0-8.73a3.27,3.27,0,0,0-2.07.71,2.85,2.85,0,0,0-1,2.07h6.07a2.75,2.75,0,0,0-.9-2A3,3,0,0,0,102.53,176.11Z" transform="translate(-2.24 -12.36)"/><path class="cls-1" d="M122.51,184.84a6.51,6.51,0,0,1-3.45-.88,5.92,5.92,0,0,1-2.25-2.47,8.86,8.86,0,0,1,0-7.36,6.07,6.07,0,0,1,2.25-2.48,6.51,6.51,0,0,1,3.45-.89,6.09,6.09,0,0,1,3.81,1.12,5,5,0,0,1,1.87,3.12h-1.81a3.59,3.59,0,0,0-1.27-2,4.07,4.07,0,0,0-2.6-.77,4.76,4.76,0,0,0-2.55.67,4.48,4.48,0,0,0-1.68,1.93,7,7,0,0,0-.59,3,7.09,7.09,0,0,0,.59,3,4.45,4.45,0,0,0,1.68,1.92,4.76,4.76,0,0,0,2.55.67,4.12,4.12,0,0,0,2.6-.74,3.51,3.51,0,0,0,1.27-2h1.81a5,5,0,0,1-1.87,3.08A6.22,6.22,0,0,1,122.51,184.84Z" transform="translate(-2.24 -12.36)"/><path class="cls-1" d="M135.5,184.84a4.83,4.83,0,0,1-2.45-.62,4.48,4.48,0,0,1-1.72-1.76,5.43,5.43,0,0,1-.63-2.67,5.34,5.34,0,0,1,.64-2.68,4.6,4.6,0,0,1,1.74-1.76,5,5,0,0,1,2.46-.62,4.87,4.87,0,0,1,2.45.62,4.57,4.57,0,0,1,1.73,1.76,6,6,0,0,1,0,5.35,4.53,4.53,0,0,1-1.74,1.76A4.9,4.9,0,0,1,135.5,184.84Zm0-1.4a3.12,3.12,0,0,0,1.56-.4,3.16,3.16,0,0,0,1.17-1.23,4.16,4.16,0,0,0,.45-2,4.29,4.29,0,0,0-.44-2,3,3,0,0,0-2.7-1.63,3,3,0,0,0-1.55.41,3.06,3.06,0,0,0-1.17,1.22,4.78,4.78,0,0,0,0,4.05A3.14,3.14,0,0,0,134,183,3,3,0,0,0,135.5,183.44Z" transform="translate(-2.24 -12.36)"/><path class="cls-1" d="M143.33,184.61V175h1.48l.12,1.4a3.18,3.18,0,0,1,1.24-1.2,3.55,3.55,0,0,1,1.75-.43,4,4,0,0,1,2,.46,3.13,3.13,0,0,1,1.27,1.43,3.71,3.71,0,0,1,1.39-1.39,3.87,3.87,0,0,1,1.92-.5,3.72,3.72,0,0,1,2.76,1,4.37,4.37,0,0,1,1,3.2v5.64h-1.61v-5.47a3.57,3.57,0,0,0-.6-2.25,2.09,2.09,0,0,0-1.74-.76,2.44,2.44,0,0,0-1.93.9,3.91,3.91,0,0,0-.77,2.58v5H150v-5.47a3.51,3.51,0,0,0-.61-2.25,2.07,2.07,0,0,0-1.73-.76,2.41,2.41,0,0,0-1.91.9,3.86,3.86,0,0,0-.77,2.58v5Z" transform="translate(-2.24 -12.36)"/><path class="cls-1" d="M161.57,188.89V175h1.48l.16,1.6a4.52,4.52,0,0,1,1.33-1.27,4,4,0,0,1,2.21-.56,4.7,4.7,0,0,1,2.51.66,4.54,4.54,0,0,1,1.66,1.81,6,6,0,0,1,0,5.2,4.44,4.44,0,0,1-1.67,1.79,4.73,4.73,0,0,1-2.52.65,4.5,4.5,0,0,1-2.11-.48,3.37,3.37,0,0,1-1.41-1.36v5.89Zm5-5.47a3.21,3.21,0,0,0,1.71-.45,3.15,3.15,0,0,0,1.17-1.28,4.43,4.43,0,0,0,0-3.81,3.06,3.06,0,0,0-1.17-1.27,3.41,3.41,0,0,0-3.42,0,3.2,3.2,0,0,0-1.17,1.27,4.43,4.43,0,0,0,0,3.81,3.3,3.3,0,0,0,1.17,1.28A3.21,3.21,0,0,0,166.55,183.42Z" transform="translate(-2.24 -12.36)"/><path class="cls-1" d="M177.6,184.84a4.41,4.41,0,0,1-2-.4,2.85,2.85,0,0,1-1.18-1.09,3,3,0,0,1-.39-1.48,2.6,2.6,0,0,1,1.13-2.28,5.23,5.23,0,0,1,3.07-.8h2.61v-.11a2.55,2.55,0,0,0-.67-1.92,2.43,2.43,0,0,0-1.77-.65,2.81,2.81,0,0,0-1.64.48,2.09,2.09,0,0,0-.87,1.39h-1.67a3.12,3.12,0,0,1,.71-1.77,4,4,0,0,1,1.53-1.1,4.9,4.9,0,0,1,1.94-.38,3.65,3.65,0,0,1,4.07,4v5.93H181l-.1-1.73a3.85,3.85,0,0,1-1.19,1.39A3.54,3.54,0,0,1,177.6,184.84Zm.25-1.38a2.66,2.66,0,0,0,1.6-.48,3.2,3.2,0,0,0,1-1.27,4,4,0,0,0,.35-1.63v0h-2.47a3.25,3.25,0,0,0-2,.49,1.59,1.59,0,0,0-.59,1.24,1.5,1.5,0,0,0,.55,1.22A2.43,2.43,0,0,0,177.85,183.46Z" transform="translate(-2.24 -12.36)"/><path class="cls-1" d="M185.75,184.61V175h1.48l.09,1.73a3.54,3.54,0,0,1,1.35-1.44,3.75,3.75,0,0,1,2-.52,3.66,3.66,0,0,1,2.73,1,4.41,4.41,0,0,1,1,3.2v5.64h-1.64v-5.47c0-2-.83-3-2.49-3a2.69,2.69,0,0,0-2.07.9,3.72,3.72,0,0,0-.83,2.58v5Z" transform="translate(-2.24 -12.36)"/><path class="cls-1" d="M198.24,188.89l2.4-5.21h-.57L196.24,175H198l3.19,7.51,3.39-7.51h1.69L200,188.89Z" transform="translate(-2.24 -12.36)"/><path class="cls-2" d="M131.78,64.51c0-14.73,4.86-28.59,13.69-39a52.45,52.45,0,0,1,5-5.17,51.92,51.92,0,0,0-25.09,44.2c0,16.34,17.74,40.09,32.12,56.66C144.48,102.75,131.78,80.66,131.78,64.51Zm46.1-52.11c-5.86.51-11.43,5.72-15.76,14.8-4.75,9.94-7.36,23.19-7.36,37.31,0,18.2,10,45.25,17,61.8h.84c-3.52-18.79-7.11-42-7.11-58.68,0-14.47,1.24-28.08,3.49-38.34S174.23,13.23,177.88,12.4Zm-26.3,52.11c0-14.58,2.72-28.32,7.67-38.69a38.32,38.32,0,0,1,8.12-11.66c-18.64,6-32.41,26.3-32.41,50.35,0,18.15,17.95,45.33,30.24,61.8h3.09C160.24,107,151.58,82.14,151.58,64.51Zm34-34.55c-2.5-11.43-5.43-14.48-6.76-14.48s-4.27,3.05-6.77,14.48c-2.2,10-3.41,23.42-3.41,37.67,0,17.12,4,41.94,7.16,58.68h6C185,109.57,189,84.75,189,67.63,189,53.38,187.79,40,185.59,30Zm4.68-15.8a38.16,38.16,0,0,1,8.13,11.66c4.95,10.37,7.67,24.11,7.67,38.69,0,17.63-8.66,42.5-16.71,61.8h3.1c12.28-16.47,30.23-43.65,30.23-61.8C222.69,40.46,208.93,20.16,190.27,14.16Zm5.26,13c-4.33-9.08-9.9-14.29-15.76-14.8,3.66.83,6.65,6.5,8.93,16.89s3.48,23.87,3.48,38.34c0,16.65-3.59,39.89-7.1,58.68h.83c7-16.55,17-43.6,17-61.8C202.89,50.39,200.28,37.14,195.53,27.2Zm36.71,37.31a51.92,51.92,0,0,0-25.09-44.2,50.28,50.28,0,0,1,5,5.17c8.83,10.44,13.69,24.3,13.69,39,0,16.15-12.7,38.24-25.74,56.66C214.51,104.6,232.24,80.85,232.24,64.51Zm-42-50.35a38.16,38.16,0,0,1,8.13,11.66c4.95,10.37,7.67,24.11,7.67,38.69,0,17.63-8.66,42.5-16.71,61.8h3.1c12.28-16.47,30.23-43.65,30.23-61.8C222.69,40.46,208.93,20.16,190.27,14.16Zm5.26,13c-4.33-9.08-9.9-14.29-15.76-14.8,3.66.83,6.65,6.5,8.93,16.89s3.48,23.87,3.48,38.34c0,16.65-3.59,39.89-7.1,58.68h.83c7-16.55,17-43.6,17-61.8C202.89,50.39,200.28,37.14,195.53,27.2ZM178.07,12.36h0l-.16,0,.65,0Z" transform="translate(-2.24 -12.36)"/><path class="cls-4" d="M177.88,12.4c-5.86.51-11.43,5.72-15.76,14.8-4.75,9.94-7.36,23.19-7.36,37.31,0,18.2,10,45.25,17,61.8h.84c-3.52-18.79-7.11-42-7.11-58.68,0-14.47,1.24-28.08,3.49-38.34S174.23,13.23,177.88,12.4Zm-26.3,52.11c0-14.58,2.72-28.32,7.67-38.69a38.32,38.32,0,0,1,8.12-11.66c-18.64,6-32.41,26.3-32.41,50.35,0,18.15,17.95,45.33,30.24,61.8h3.09C160.24,107,151.58,82.14,151.58,64.51Zm34-34.55c-2.5-11.43-5.43-14.48-6.76-14.48s-4.27,3.05-6.77,14.48c-2.2,10-3.41,23.42-3.41,37.67,0,17.12,4,41.94,7.16,58.68h6C185,109.57,189,84.75,189,67.63,189,53.38,187.79,40,185.59,30Zm4.68-15.8a38.16,38.16,0,0,1,8.13,11.66c4.95,10.37,7.67,24.11,7.67,38.69,0,17.63-8.66,42.5-16.71,61.8h3.1c12.28-16.47,30.23-43.65,30.23-61.8C222.69,40.46,208.93,20.16,190.27,14.16Zm5.26,13c-4.33-9.08-9.9-14.29-15.76-14.8,3.66.83,6.65,6.5,8.93,16.89s3.48,23.87,3.48,38.34c0,16.65-3.59,39.89-7.1,58.68h.83c7-16.55,17-43.6,17-61.8C202.89,50.39,200.28,37.14,195.53,27.2ZM178.07,12.36h0l-.16,0,.65,0Z" transform="translate(-2.24 -12.36)"/><path class="cls-2" d="M178.53,12.36l-.65,0,.16,0h.49Z" transform="translate(-2.24 -12.36)"/><path class="cls-2" d="M171.74,126.31c-7-16.55-17-43.6-17-61.8,0-14.12,2.61-27.37,7.36-37.31,4.33-9.08,9.9-14.29,15.76-14.8-3.65.83-6.65,6.5-8.92,16.89s-3.49,23.87-3.49,38.34c0,16.65,3.59,39.89,7.11,58.68Z" transform="translate(-2.24 -12.36)"/><path class="cls-2" d="M189,67.63c0,17.12-4,41.94-7.16,58.68h-6c-3.13-16.74-7.16-41.56-7.16-58.68,0-14.25,1.21-27.62,3.41-37.67,2.5-11.43,5.43-14.48,6.77-14.48s4.26,3.05,6.76,14.48C187.79,40,189,53.38,189,67.63Z" transform="translate(-2.24 -12.36)"/><path class="cls-2" d="M202.89,64.51c0,18.2-10,45.25-17,61.8h-.83c3.51-18.79,7.1-42,7.1-58.68,0-14.47-1.24-28.08-3.48-38.34s-5.27-16.06-8.93-16.89c5.86.51,11.43,5.72,15.76,14.8C200.28,37.14,202.89,50.39,202.89,64.51Z" transform="translate(-2.24 -12.36)"/><path class="cls-4" d="M189,67.63c0,17.12-4,41.94-7.16,58.68h-6c-3.13-16.74-7.16-41.56-7.16-58.68,0-14.25,1.21-27.62,3.41-37.67,2.5-11.43,5.43-14.48,6.77-14.48s4.26,3.05,6.76,14.48C187.79,40,189,53.38,189,67.63Z" transform="translate(-2.24 -12.36)"/><path class="cls-3" d="M178.07,12.36h0l-.16,0,.65,0Zm1.52,0h0Z" transform="translate(-2.24 -12.36)"/></svg>