<svg width="80" height="80" viewBox="0 0 80 80" fill="none" xmlns="http://www.w3.org/2000/svg">
<path d="M49.9994 13.3333C57.0719 13.3333 63.8546 16.1428 68.8556 21.1438C73.8566 26.1448 76.6661 32.9275 76.6661 40C76.6661 47.0724 73.8566 53.8552 68.8556 58.8562C63.8546 63.8571 57.0719 66.6666 49.9994 66.6666C42.927 66.6666 36.1442 63.8571 31.1432 58.8562C26.1423 53.8552 23.3328 47.0724 23.3328 40C23.3328 32.9275 26.1423 26.1448 31.1432 21.1438C36.1442 16.1428 42.927 13.3333 49.9994 13.3333ZM49.9994 20C44.6951 20 39.608 22.1071 35.8573 25.8578C32.1066 29.6086 29.9994 34.6956 29.9994 40C29.9994 45.3043 32.1066 50.3914 35.8573 54.1421C39.608 57.8928 44.6951 60 49.9994 60C55.3038 60 60.3908 57.8928 64.1416 54.1421C67.8923 50.3914 69.9994 45.3043 69.9994 40C69.9994 34.6956 67.8923 29.6086 64.1416 25.8578C60.3908 22.1071 55.3038 20 49.9994 20ZM46.6661 26.6666H51.6661V39.2666L59.4328 47.0333L55.8994 50.5666L46.6661 41.3333V26.6666ZM6.6661 60C5.78204 60 4.9342 59.6488 4.30907 59.0237C3.68395 58.3985 3.33276 57.5507 3.33276 56.6666C3.33276 55.7826 3.68395 54.9347 4.30907 54.3096C4.9342 53.6845 5.78204 53.3333 6.6661 53.3333H19.4328C20.4661 55.7 21.7994 57.9333 23.3328 60H6.6661ZM9.99943 43.3333C9.11537 43.3333 8.26753 42.9821 7.64241 42.357C7.01729 41.7319 6.6661 40.884 6.6661 40C6.6661 39.1159 7.01729 38.2681 7.64241 37.643C8.26753 37.0178 9.11537 36.6666 9.99943 36.6666H16.8328L16.6661 40L16.8328 43.3333H9.99943ZM13.3328 26.6666C12.4487 26.6666 11.6009 26.3155 10.9757 25.6903C10.3506 25.0652 9.99943 24.2174 9.99943 23.3333C9.99943 22.4493 10.3506 21.6014 10.9757 20.9763C11.6009 20.3512 12.4487 20 13.3328 20H23.3328C21.7994 22.0666 20.4661 24.3 19.4328 26.6666H13.3328Z" fill="#FF800B"/>
</svg>
