<svg width="81" height="80" viewBox="0 0 81 80" fill="none" xmlns="http://www.w3.org/2000/svg">
<path fill-rule="evenodd" clip-rule="evenodd" d="M51.0277 38.8814H64.9342C66.8191 38.8814 68.3632 40.4126 68.3632 42.2818V56.2214C68.3632 58.0906 66.8191 59.6218 64.9342 59.6218H51.0277C45.2776 59.6218 40.5703 54.9537 40.5703 49.2516C40.5753 43.5445 45.2726 38.8814 51.0277 38.8814ZM35.2613 19.4635L37.5373 21.5962L42.4652 16.6398C42.9014 16.2023 43.1721 15.8543 43.7085 16.3962L45.443 18.161C46.0145 18.7178 45.9845 19.0459 45.448 19.5679L38.5299 26.0405C37.3969 27.1442 37.5924 27.2088 36.4444 26.0803L32.3437 22.3071C32.103 22.0486 32.1281 21.7901 32.3938 21.5316L34.4091 19.4585C34.7049 19.1453 34.9455 19.1652 35.2613 19.4635ZM18.1414 22.5059H27.0147C26.9996 22.2574 26.9896 22.0088 26.9896 21.7553C26.9946 14.9645 32.5442 9.45624 39.3972 9.45624C46.2451 9.45624 51.7997 14.9645 51.7997 21.7553C51.7997 22.0038 51.7897 22.2524 51.7797 22.501L55.0432 22.496C58.377 22.491 61.1041 25.0811 61.1041 28.387V29.3713C62.7484 30.4501 63.8363 32.2994 63.8363 34.3874V36.5549H59.9862V35.1082C59.9862 33.5522 58.7028 32.2845 57.1387 32.2845H21.7208V29.1377C21.7208 28.7201 22.0667 28.3771 22.4878 28.3771H28.9447C28.5186 27.7208 28.1577 27.0199 27.8619 26.2841H18.9987C17.8958 26.2841 16.9984 27.179 16.9984 28.2677V64.3743C16.9984 65.468 17.9008 66.3579 18.9987 66.3579H57.9508C59.0537 66.3579 59.9511 65.4631 59.9511 64.3743V62.1025H63.9015V65.8558H63.8914C63.8764 68.4508 61.0841 70.5437 58.3268 70.5437H18.1264C15.1084 70.5388 12.637 68.0879 12.637 65.0952V27.9644C12.637 24.9618 15.1135 22.5059 18.1414 22.5059ZM50.9274 26.2792C50.6316 27.0149 50.2707 27.7159 49.8446 28.3721H57.7654C57.9859 28.3721 58.2015 28.382 58.4171 28.4069V28.2627C58.4171 27.169 57.5147 26.2792 56.4168 26.2792H50.9274ZM51.5541 42.6795H63.8914V55.8237H51.5541C47.9095 55.8237 44.9267 52.8657 44.9267 49.2516C44.9267 45.6325 47.9095 42.6795 51.5541 42.6795ZM54.587 47.0742C55.8353 47.0742 56.848 48.0784 56.848 49.3162C56.848 50.5541 55.8353 51.5583 54.587 51.5583C53.3387 51.5583 52.3261 50.5541 52.3261 49.3162C52.3261 48.0784 53.3387 47.0742 54.587 47.0742Z" fill="#FF800B"/>
</svg>
